<svg width="44" height="32" viewBox="0 0 44 32" fill="none" xmlns="http://www.w3.org/2000/svg">
<path d="M21.8982 21.0798C14.9982 21.0798 9.17627 22.2073 9.17627 26.5588C9.17627 30.9121 15.0358 32 21.8982 32C28.7981 32 34.62 30.8725 34.62 26.521C34.62 22.1677 28.7605 21.0798 21.8982 21.0798Z" fill="#e0aa3a"/>
<path opacity="0.4" d="M21.8981 16.9341C26.5703 16.9341 30.3166 13.1661 30.3166 8.46703C30.3166 3.76613 26.5703 0 21.8981 0C17.2259 0 13.4795 3.76613 13.4795 8.46703C13.4795 13.1661 17.2259 16.9341 21.8981 16.9341Z" fill="#e0aa3a"/>
<path opacity="0.4" d="M40.1759 10.4385C41.3847 5.68358 37.8407 1.41315 33.3278 1.41315C32.8372 1.41315 32.368 1.46718 31.9095 1.55904C31.8486 1.57345 31.7806 1.60406 31.7448 1.6581C31.7036 1.72654 31.734 1.8184 31.7788 1.87783C33.1344 3.79062 33.9134 6.11945 33.9134 8.6194C33.9134 11.0149 33.1989 13.2483 31.9453 15.1016C31.8164 15.2925 31.931 15.5501 32.1585 15.5897C32.4736 15.6455 32.796 15.6744 33.1255 15.6834C36.4116 15.7698 39.3611 13.6427 40.1759 10.4385Z" fill="#e0aa3a"/>
<path d="M43.6186 21.6339C43.0169 20.3443 41.5645 19.4599 39.3565 19.0258C38.3142 18.7701 35.4937 18.4099 32.8702 18.4585C32.8308 18.4639 32.8093 18.4909 32.8057 18.5089C32.8003 18.5341 32.8111 18.5774 32.863 18.6044C34.0754 19.2078 38.7619 21.832 38.1727 27.3668C38.1477 27.6063 38.3393 27.8135 38.5775 27.7774C39.7307 27.6117 42.6981 26.9705 43.6186 24.9731C44.1272 23.9177 44.1272 22.6911 43.6186 21.6339Z" fill="#e0aa3a"/>
<path opacity="0.4" d="M12.0897 1.55959C11.633 1.46593 11.162 1.4137 10.6713 1.4137C6.15852 1.4137 2.61451 5.68413 3.8251 10.4391C4.63812 13.6432 7.58758 15.7704 10.8737 15.6839C11.2032 15.6749 11.5274 15.6443 11.8407 15.5903C12.0682 15.5506 12.1828 15.2931 12.0538 15.1021C10.8003 13.247 10.0858 11.0154 10.0858 8.61995C10.0858 6.1182 10.8665 3.78936 12.2222 1.87838C12.2652 1.81895 12.2974 1.72709 12.2544 1.65865C12.2186 1.60281 12.1523 1.574 12.0897 1.55959Z" fill="#e0aa3a"/>
<path d="M4.64311 19.0253C2.43505 19.4594 0.984495 20.3438 0.382785 21.6333C-0.127595 22.6906 -0.127595 23.9172 0.382785 24.9744C1.30326 26.97 4.27062 27.613 5.4239 27.7769C5.66208 27.813 5.8519 27.6076 5.82683 27.3663C5.23766 21.8333 9.9242 19.2091 11.1384 18.6057C11.1885 18.5769 11.1992 18.5354 11.1939 18.5084C11.1903 18.4904 11.1706 18.4634 11.1312 18.4598C8.50588 18.4094 5.68715 18.7696 4.64311 19.0253Z" fill="#e0aa3a"/>
</svg>
