<?xml version="1.0" encoding="utf-8"?>
<!-- Generator: Adobe Illustrator 23.1.0, SVG Export Plug-In . SVG Version: 6.00 Build 0)  -->
<svg version="1.1" id="Layer_1" xmlns="http://www.w3.org/2000/svg" xmlns:xlink="http://www.w3.org/1999/xlink" x="0px" y="0px"
	 viewBox="0 0 400 200" style="enable-background:new 0 0 400 200;" xml:space="preserve">
<style type="text/css">
	.st0{fill:none;stroke:#FFFFFF;stroke-width:0.7071;stroke-miterlimit:10;stroke-opacity:0;}
	.st1{fill:none;stroke:#B20916;stroke-width:3.5;stroke-miterlimit:10;}
</style>
<rect class="st0" width="400" height="200"/>
<g>
	<g>
		<g>
			<line class="st1" x1="166.4" y1="91.6" x2="166.4" y2="138.4"/>
			<line class="st1" x1="188.6" y1="91.6" x2="188.6" y2="138.4"/>
			<line class="st1" x1="210.7" y1="91.6" x2="210.7" y2="138.4"/>
		</g>
		<line class="st1" x1="232.9" y1="91.6" x2="232.9" y2="138.4"/>
	</g>
	<line class="st1" x1="273.5" y1="159.5" x2="125.8" y2="159.5"/>
	<polygon class="st1" points="155.2,90.8 244.1,90.8 244.1,81.2 199.7,60.1 155.2,81.2 	"/>
	<line class="st1" x1="265.7" y1="147.2" x2="133.6" y2="147.2"/>
	<g>
		<g>
			<line class="st1" x1="144.2" y1="121" x2="144.2" y2="138.4"/>
			<polyline class="st1" points="157.2,108.6 135.8,108.6 135.8,120 157.2,120 			"/>
		</g>
		<g>
			<line class="st1" x1="255.1" y1="121" x2="255.1" y2="138.4"/>
			<polyline class="st1" points="242.1,108.6 263.5,108.6 263.5,120 242.1,120 			"/>
		</g>
	</g>
</g>
</svg>
