<?xml version="1.0" encoding="utf-8"?>
<!-- Generator: Adobe Illustrator 26.3.1, SVG Export Plug-In . SVG Version: 6.00 Build 0)  -->
<svg version="1.1" id="Layer_1" xmlns="http://www.w3.org/2000/svg" xmlns:xlink="http://www.w3.org/1999/xlink" x="0px" y="0px"
	 viewBox="0 0 400.7 200.7" style="enable-background:new 0 0 400.7 200.7;" xml:space="preserve">
<style type="text/css">
	.st0{fill:none;stroke:#C00D0D;stroke-width:4.7237;stroke-miterlimit:10;}
	.st1{fill:none;stroke:#C00D0D;stroke-width:4.7237;stroke-linecap:round;stroke-miterlimit:10;}
	.st2{fill:none;stroke:#C00D0D;stroke-width:4.7237;stroke-linejoin:round;stroke-miterlimit:10;}
</style>
<g>
	<g>
		<path class="st0" d="M213.3,110.5c0.5,11-7.9,20.3-18.9,20.8c-11,0.5-20.3-7.9-20.8-18.9c-0.5-11,7.9-20.3,18.9-20.8
			C203.4,91.1,212.7,99.5,213.3,110.5z"/>
		<path class="st1" d="M184,111.9c-0.2-4,2.1-7.6,5.6-9.1"/>
		<line class="st1" x1="206" y1="126.8" x2="215" y2="137.4"/>
	</g>
	<g>
		<path class="st2" d="M138.5,144.5V84.3c0-4.5,3.7-8.2,8.2-8.2H242c4.5,0,8.2,3.7,8.2,8.2v60.2"/>
		<path class="st2" d="M125.5,153.5c0,0,2.4,10.8,10.3,10.8h117.2c7.9,0,10.3-10.8,10.3-10.8H125.5z"/>
	</g>
</g>
</svg>
