<?xml version="1.0" encoding="utf-8"?>
<!-- Generator: Adobe Illustrator 23.1.0, SVG Export Plug-In . SVG Version: 6.00 Build 0)  -->
<svg version="1.1" id="Layer_1" xmlns="http://www.w3.org/2000/svg" xmlns:xlink="http://www.w3.org/1999/xlink" x="0px" y="0px"
	 viewBox="0 0 400 200" style="enable-background:new 0 0 400 200;" xml:space="preserve">
<style type="text/css">
	.st0{display:none;}
	.st1{display:inline;fill:#B20916;}
	.st2{fill:none;stroke:#FFFFFF;stroke-width:0.7071;stroke-miterlimit:10;stroke-opacity:0;}
	.st3{fill:none;stroke:#B20916;stroke-width:3.5;stroke-miterlimit:10;}
</style>
<g class="st0">
	<path class="st1" d="M150.4,76.8c-3.9,0-7.5,0-11.1,0c-3.5,0-4.5-1-4.5-4.4c0-3.7,0.1-7.3,0-11c-0.1-2.5,0.9-3.9,3.1-4.9
		c14.8-7,29.6-14,44.4-21c5.2-2.5,10.4-5,15.7-7.3c1.2-0.5,3-0.6,4.1,0c20.2,9.5,40.3,19.1,60.5,28.7c1.9,0.9,2.8,2.2,2.7,4.3
		c-0.1,3.8,0,7.6,0,11.4c0,3.2-1.1,4.3-4.4,4.3c-3.6,0-7.3,0-11.2,0c0,21,0,41.9,0,62.8c-2.2,0-4.2,0-6.4,0c0-20.8,0-41.6,0-62.6
		c-8.3,0-16.3,0-24.5,0c0,20.8,0,41.6,0,62.6c-2.2,0-4.2,0-6.5,0c0-20.8,0-41.6,0-62.6c-8.2,0-16.2,0-24.4,0c0,20.8,0,41.7,0,62.6
		c-2.3,0-4.2,0-6.4,0c0-20.9,0-41.7,0-62.6c-8.3,0-16.2,0-24.5,0c0,20.9,0,41.7,0,62.6c-2.3,0-4.3,0-6.5,0
		C150.4,118.7,150.4,97.9,150.4,76.8z M141.3,70.3c1.2,0,2.2,0,3.1,0c36.3,0,72.5,0,108.8,0c5.6,0,5.5,0,5.7-5.6
		c0.1-2-0.7-2.9-2.4-3.8c-18.3-8.6-36.6-17.4-54.9-26c-0.8-0.4-2.1-0.4-3,0c-7.4,3.4-14.7,6.9-22,10.4c-11,5.2-22.1,10.4-33.1,15.7
		c-0.9,0.4-2,1.3-2.1,2.1C141.1,65.4,141.3,67.7,141.3,70.3z"/>
	<path class="st1" d="M199.9,172.3c-33.5,0-67.1,0-100.6,0c-0.7,0-1.5,0-2.2,0c-1.9-0.1-3-1.1-3.1-3c-0.2-1.8,1-3.2,3-3.4
		c0.6-0.1,1.2,0,1.8,0c67.6,0,135.2,0,202.8,0c0.7,0,1.5,0,2.2,0.1c1.6,0.4,2.5,1.6,2.4,3.2c-0.1,1.7-1.1,2.9-2.9,3
		c-0.8,0.1-1.6,0-2.4,0C267.1,172.3,233.5,172.3,199.9,172.3z"/>
	<path class="st1" d="M199.9,155.1c-30,0-60,0-90.1,0c-0.8,0-1.8,0.3-2.4-0.1c-1-0.6-2.1-1.5-2.5-2.6c-0.5-1.4,0.2-2.8,1.7-3.4
		c0.9-0.3,2-0.4,3-0.4c60.2,0,120.4,0,180.6,0c0.3,0,0.6,0,0.9,0c2.6,0,4.1,1.2,4.1,3.3c0,2-1.5,3.2-4.1,3.2
		C260.7,155.1,230.3,155.1,199.9,155.1z"/>
	<path class="st1" d="M140.8,95c0,2.2,0,4.2,0,6.4c-8.8,0-17.4,0-26.3,0c0,3.2,0,6.2,0,9.4c8.7,0,17.4,0,26.2,0c0,2.2,0,4.2,0,6.5
		c-4.8,0-9.6,0-14.7,0c0,7.6,0,14.9,0,22.4c-2.2,0-4.2,0-6.4,0c0-7.3,0-14.7,0-22.3c-2.8,0-5.3,0-7.9,0c-2.7,0-3.8-1.1-3.8-3.7
		c0-5,0-10,0-14.9c0-2.3,1.1-3.6,3.2-3.6C120.9,95,130.7,95,140.8,95z"/>
	<path class="st1" d="M285.5,101.5c-8.7,0-17.4,0-26.1,0c0-2.2,0-4.2,0-6.3c0.6,0,1.2-0.1,1.7-0.1c8.9,0,17.9,0,26.8,0
		c3,0,4.2,1.1,4.2,4.1c0,4.7,0,9.4,0,14.1c0,3.1-1.1,4.1-4.3,4.2c-2.3,0-4.7,0-7.3,0c0,7.5,0,14.8,0,22.3c-2.3,0-4.2,0-6.4,0
		c0-7.4,0-14.7,0-22.3c-5,0-9.8,0-14.7,0c0-2.2,0-4.2,0-6.4c8.7,0,17.3,0,26.2,0C285.5,107.7,285.5,104.8,285.5,101.5z"/>
</g>
<rect class="st2" width="400" height="200"/>
<g>
	<path class="st3" d="M182.4,74v-6.6c0-3.1,2.5-5.7,5.7-5.7h25c3.1,0,5.7,2.5,5.7,5.7V74"/>
	<g>
		<g>
			<path class="st3" d="M257.8,151.1c0,5.2-4.2,9.4-9.4,9.4h-95.9c-5.2,0-9.4-4.2-9.4-9.4V88.9c0-5.2,4.2-9.4,9.4-9.4h95.9
				c5.2,0,9.4,4.2,9.4,9.4V151.1z"/>
		</g>
	</g>
	<polygon class="st3" points="221.2,113 207.5,113 207.5,99.3 193.5,99.3 193.5,113 179.8,113 179.8,127 193.5,127 193.5,140.7 
		207.5,140.7 207.5,127 221.2,127 	"/>
	<g>
		<line class="st3" x1="162.2" y1="99.9" x2="162.2" y2="140"/>
		<line class="st3" x1="238.8" y1="99.9" x2="238.8" y2="140"/>
	</g>
</g>
</svg>
