<svg id="Layer_1" data-name="Layer 1" xmlns="http://www.w3.org/2000/svg" viewBox="0 0 400.71 200.71"><defs><style>.cls-1,.cls-2{fill:none;stroke-miterlimit:10;}.cls-1{stroke:#fff;stroke-opacity:0;stroke-width:0.71px;}.cls-2{stroke:#b20916;stroke-width:4.57px;}</style></defs><rect class="cls-1" x="0.35" y="0.35" width="400" height="200"/><line class="cls-2" x1="170.15" y1="161.52" x2="212.27" y2="161.52"/><path class="cls-2" d="M221.72,148.08H147.21a9.06,9.06,0,0,1-9-9V84.77a9.07,9.07,0,0,1,9-9h87.31a9.07,9.07,0,0,1,9,9v20.6" transform="translate(0.35 0.35)"/><polyline class="cls-2" points="158.11 133.29 171.13 111.78 180.92 125.81 192.74 113.51 203.55 122.78 221.62 91.81"/><path class="cls-2" d="M254.21,128.5a16.16,16.16,0,1,1-16.15-16.15,16.15,16.15,0,0,1,16.15,16.15Z" transform="translate(0.35 0.35)"/><line class="cls-2" x1="250.14" y1="140.33" x2="261.21" y2="151.29"/></svg>