<?xml version="1.0" encoding="utf-8"?>
<!-- Generator: Adobe Illustrator 23.1.0, SVG Export Plug-In . SVG Version: 6.00 Build 0)  -->
<svg version="1.1" id="Layer_1" xmlns="http://www.w3.org/2000/svg" xmlns:xlink="http://www.w3.org/1999/xlink" x="0px" y="0px"
	 viewBox="0 0 400 200" style="enable-background:new 0 0 400 200;" xml:space="preserve">
<style type="text/css">
	.st0{fill:none;stroke:#FFFFFF;stroke-width:0.7071;stroke-miterlimit:10;stroke-opacity:0;}
	.st1{display:none;}
	.st2{display:inline;fill:#B20916;}
	.st3{fill:none;stroke:#B20916;stroke-width:3.5;stroke-miterlimit:10;}
</style>
<rect class="st0" width="400" height="200"/>
<g class="st1">
	<path class="st2" d="M150.4,76.8c-3.9,0-7.5,0-11.1,0c-3.5,0-4.5-1-4.5-4.4c0-3.7,0.1-7.3,0-11c-0.1-2.5,0.9-3.9,3.1-4.9
		c14.8-7,29.6-14,44.4-21c5.2-2.5,10.4-5,15.7-7.3c1.2-0.5,3-0.6,4.1,0c20.2,9.5,40.3,19.1,60.5,28.7c1.9,0.9,2.8,2.2,2.7,4.3
		c-0.1,3.8,0,7.6,0,11.4c0,3.2-1.1,4.3-4.4,4.3c-3.6,0-7.3,0-11.2,0c0,21,0,41.9,0,62.8c-2.2,0-4.2,0-6.4,0c0-20.8,0-41.6,0-62.6
		c-8.3,0-16.3,0-24.5,0c0,20.8,0,41.6,0,62.6c-2.2,0-4.2,0-6.5,0c0-20.8,0-41.6,0-62.6c-8.2,0-16.2,0-24.4,0c0,20.8,0,41.7,0,62.6
		c-2.3,0-4.2,0-6.4,0c0-20.9,0-41.7,0-62.6c-8.3,0-16.2,0-24.5,0c0,20.9,0,41.7,0,62.6c-2.3,0-4.3,0-6.5,0
		C150.4,118.7,150.4,97.9,150.4,76.8z M141.3,70.3c1.2,0,2.2,0,3.1,0c36.3,0,72.5,0,108.8,0c5.6,0,5.5,0,5.7-5.6
		c0.1-2-0.7-2.9-2.4-3.8c-18.3-8.6-36.6-17.4-54.9-26c-0.8-0.4-2.1-0.4-3,0c-7.4,3.4-14.7,6.9-22,10.4c-11,5.2-22.1,10.4-33.1,15.7
		c-0.9,0.4-2,1.3-2.1,2.1C141.1,65.4,141.3,67.7,141.3,70.3z"/>
	<path class="st2" d="M199.9,172.3c-33.5,0-67.1,0-100.6,0c-0.7,0-1.5,0-2.2,0c-1.9-0.1-3-1.1-3.1-3c-0.2-1.8,1-3.2,3-3.4
		c0.6-0.1,1.2,0,1.8,0c67.6,0,135.2,0,202.8,0c0.7,0,1.5,0,2.2,0.1c1.6,0.4,2.5,1.6,2.4,3.2c-0.1,1.7-1.1,2.9-2.9,3
		c-0.8,0.1-1.6,0-2.4,0C267.1,172.3,233.5,172.3,199.9,172.3z"/>
	<path class="st2" d="M199.9,155.1c-30,0-60,0-90.1,0c-0.8,0-1.8,0.3-2.4-0.1c-1-0.6-2.1-1.5-2.5-2.6c-0.5-1.4,0.2-2.8,1.7-3.4
		c0.9-0.3,2-0.4,3-0.4c60.2,0,120.4,0,180.6,0c0.3,0,0.6,0,0.9,0c2.6,0,4.1,1.2,4.1,3.3c0,2-1.5,3.2-4.1,3.2
		C260.7,155.1,230.3,155.1,199.9,155.1z"/>
	<path class="st2" d="M140.8,95c0,2.2,0,4.2,0,6.4c-8.8,0-17.4,0-26.3,0c0,3.2,0,6.2,0,9.4c8.7,0,17.4,0,26.2,0c0,2.2,0,4.2,0,6.5
		c-4.8,0-9.6,0-14.7,0c0,7.6,0,14.9,0,22.4c-2.2,0-4.2,0-6.4,0c0-7.3,0-14.7,0-22.3c-2.8,0-5.3,0-7.9,0c-2.7,0-3.8-1.1-3.8-3.7
		c0-5,0-10,0-14.9c0-2.3,1.1-3.6,3.2-3.6C120.9,95,130.7,95,140.8,95z"/>
	<path class="st2" d="M285.5,101.5c-8.7,0-17.4,0-26.1,0c0-2.2,0-4.2,0-6.3c0.6,0,1.2-0.1,1.7-0.1c8.9,0,17.9,0,26.8,0
		c3,0,4.2,1.1,4.2,4.1c0,4.7,0,9.4,0,14.1c0,3.1-1.1,4.1-4.3,4.2c-2.3,0-4.7,0-7.3,0c0,7.5,0,14.8,0,22.3c-2.3,0-4.2,0-6.4,0
		c0-7.4,0-14.7,0-22.3c-5,0-9.8,0-14.7,0c0-2.2,0-4.2,0-6.4c8.7,0,17.3,0,26.2,0C285.5,107.7,285.5,104.8,285.5,101.5z"/>
</g>
<g class="st1">
	<path class="st2" d="M200.1,56.9c21.8,0,43.6,0,65.5,0c5.5,0,10.3,1.5,13.3,6.4c1.3,2.2,2.3,4.9,2.3,7.4
		c0.2,29.1,0.1,58.1,0.1,87.2c0,7.5-6.1,13.7-13.7,13.7c-45,0-89.9,0-134.9,0c-7.7,0-13.6-6.1-13.7-14.1c-0.1-7.3,0-14.6,0-21.9
		c0-21.1,0-42.2,0-63.3c0-9.8,5.5-15.4,15.3-15.4C156.1,56.9,178.1,56.9,200.1,56.9z M199.9,165.1c22.1,0,44.2,0,66.3,0
		c5.5,0,8.5-3,8.5-8.5c0-12.5,0-25.1,0-37.6c0-15.8,0-31.7,0-47.5c0-3.9-2.2-7-5.6-7.7c-1.4-0.3-2.9-0.3-4.4-0.3
		c-38.4,0-76.8,0-115.2,0c-5.2,0-10.5-0.1-15.7,0c-5.7,0.1-8.5,3.1-8.5,8.7c0,28.1,0,56.2,0,84.3c0,5.8,3,8.7,8.7,8.7
		C156,165.1,177.9,165.1,199.9,165.1z"/>
	<path class="st2" d="M229,49c-2.5,0-4.3,0-6.5,0c0-2.8,0-5.4,0-8c0-4.1-1.8-6-5.9-6c-11.1,0-22.1,0-33.2,0c-4,0-5.8,1.8-5.9,5.8
		c-0.1,2.6,0,5.3,0,8.1c-2.1,0-4.1,0-6.4,0c0.3-4.6-0.9-9.3,1.1-13.8c2.1-4.7,6.1-6.6,11.1-6.6c11.2,0,22.4-0.1,33.6,0
		c7.8,0.1,12.2,4.8,12.2,12.6C229,43.7,229,46.3,229,49z"/>
	<path class="st2" d="M186.8,101c0-5.9,0.1-11.5,0-17.1c-0.1-2,0.6-2.5,2.5-2.4c7.1,0.1,14.3,0,21.5,0c0.7,0,1.4,0,2.4,0
		c0,6.5,0,12.8,0,19.4c6.6,0,12.9,0,19.4,0c0,8.9,0,17.5,0,26.4c-6.4,0-12.7,0-19.3,0c0,6.6,0,12.9,0,19.3c-8.8,0-17.4,0-26.3,0
		c0-6.3,0-12.6,0-19.2c-6.6,0-13,0-19.6,0c0-2.1,0-3.8,0-5.6c0-6.3,0.1-12.5,0-18.8c0-1.7,0.5-2.1,2.1-2.1
		C175.1,101.1,180.8,101,186.8,101z M206.6,88.2c-0.6-0.1-0.8-0.2-1-0.2c-2.6,0-5.2,0-7.7,0c-4.6,0-4.6,0-4.6,4.5c0,4.9,0,9.8,0,15
		c-1.1,0-1.8,0-2.6,0c-4.9,0-9.9,0-14.8,0c-0.7,0-1.9,0.7-1.9,1c-0.1,4-0.1,8.1-0.1,12.3c6.6,0,12.9,0,19.5,0c0,6.6,0,12.9,0,19.3
		c4.6,0,8.8,0,13.3,0c0-6.4,0-12.7,0-19.3c6.6,0,12.9,0,19.3,0c0-4.6,0-8.9,0-13.4c-6.5,0-12.8,0-19.3,0
		C206.6,100.9,206.6,94.6,206.6,88.2z"/>
	<path class="st2" d="M149,114.1c0,9.2,0,18.4,0,27.6c0,2.7-1,4.1-3.1,4.2c-2.1,0-3.3-1.4-3.3-4c0-18.4,0-36.8,0-55.2
		c0-2.5,1-3.8,2.9-4c2.2-0.2,3.6,1.1,3.6,3.7C149,95.6,149,104.8,149,114.1z"/>
	<path class="st2" d="M257.4,114.3c0,9,0,18,0,27c0,0.7,0.2,1.5-0.1,2c-0.7,1-1.6,2.4-2.6,2.5c-1.1,0.1-2.4-0.9-3.4-1.7
		c-0.5-0.4-0.4-1.5-0.4-2.3c0-18.3,0-36.7,0-55c0-0.3,0-0.6,0-0.9c0.2-2.1,1.5-3.3,3.5-3.2c1.9,0.1,3,1.3,3,3.4c0,6.6,0,13.1,0,19.7
		C257.4,108.5,257.4,111.4,257.4,114.3z"/>
</g>
<g class="st1">
	<path class="st2" d="M260.6,86.5c0,0.7,0,1.3,0,2s0,1.3-0.7,1.5s-1.3,0-1.7-0.6c-1.1-1.5-2.4-3-3.8-4.3c-9.5-8.5-24.5-7.1-32.4,3
		c-0.3,0.4-0.6,0.7-0.9,1.1c-1,1.2-1.7,1.2-2.7-0.1c-2.7-3.7-6.1-6.5-10.4-8.1c-9.3-3.5-19.5-0.7-25.6,7.1c-0.3,0.3-0.5,0.7-0.8,1
		c-1,1.3-1.8,1.3-2.8,0c-3.5-4.7-7.9-7.9-13.7-9c-9.1-1.7-16.5,1.1-22.4,8.1c-0.7,0.8-1.1,2.3-2.6,1.7c-1.4-0.5-0.8-1.9-0.7-2.9
		c0.6-18.4,8.1-33.6,22.3-45.3c12.3-10.2,26.7-14.5,42.6-13.5c26.2,1.6,48.9,21.1,54.8,46.7C260,78.8,260.5,82.7,260.6,86.5z
		 M197.1,31c-17.7,1.1-32.1,8.6-43.1,22.5c-6.8,8.5-13,25.5-11.6,31c12-10,24.1-10,36.2,0c-0.5-9.8,0.8-19.3,4.1-28.5
		C185.9,46.7,190.9,38.6,197.1,31z M218.8,85.4c0.6-7.8-0.2-15.3-2-22.7c-2.9-11.5-8.7-21.4-16.2-30.5c-0.7-0.9-0.9-0.3-1.3,0.2
		c-10.1,12-16.6,25.5-18,41.2c-0.4,3.9-0.6,7.7,0,11.7C191.2,74.5,208.4,74.1,218.8,85.4z M221.5,84.7c5.2-5.1,11.2-7.7,18.3-7.6
		c7.1,0,13,2.7,18.1,7.8c-1.7-30.3-27.8-53.3-55.2-53.9C215.9,46.4,222.4,64.2,221.5,84.7z"/>
	<path class="st2" d="M196.3,90.2c0-1.9,0-3.7,0-5.6c0-0.9-0.1-2,1.3-2c1.3,0,1.2,1,1.2,1.9c0,3.7,0,7.3,0,11c0,1,0.2,1.4,1.3,1.4
		s1.2-0.4,1.2-1.3c0-3.7,0-7.4,0-11.1c0-0.9,0-1.8,1.3-1.8c1.2,0,1.2,0.9,1.2,1.7c0,3.9,0,7.7,0,11.6c0,0.9,0.3,1.2,1.1,1.4
		c9.1,2.5,14.7,8.4,16.1,17.7c1.7,11.5-5.8,20.7-15.4,23.2c-1.4,0.4-1.8,0.9-1.7,2.3c0.1,2.6,0,5.2,0,7.7c0,1-0.5,2.3,1,2.8
		c0.1,0.1,0.2,0.4,0.2,0.5c-0.1,3.6,0.5,7.3-0.4,10.9c-1.2,4.9-6,9.7-13.3,9.1c-5.2-0.4-10.2-4.9-10.9-10.4
		c-0.4-3.2-0.1-6.4-0.1-9.6c0-0.7,0.5-1.1,1.2-1.1c2.5,0,4.9,0,7.4,0c1,0,1.3,0.6,1.3,1.5c0,2.2,0,4.3,0,6.5c0,1.2,0.3,2.4,1.6,2.9
		c1.7,0.6,3.2-0.5,3.3-2.6s0-4.2,0-6.3c0-0.8-0.1-1.7,0.9-2c0.5-0.2,0.3-0.7,0.3-1.1c0-3.2,0-6.4,0-9.6c0-1-0.3-1.4-1.2-1.6
		c-8.8-2.4-14.1-8-15.9-17c-2-10.6,4.9-21.3,15.5-23.9c1.3-0.3,1.7-0.8,1.6-2.1C196.2,93.7,196.3,92,196.3,90.2z M181.5,117.9
		c0,10.1,8.3,18.5,18.4,18.5c10.3,0,18.6-8.3,18.6-18.5s-8.3-18.6-18.5-18.6C189.8,99.4,181.5,107.7,181.5,117.9z M202.5,157.4
		c0-4.3,0-4.3-3.9-4.2c-0.8,0-1.1,0.2-1,1c0.1,1.9,0.1,3.8,0,5.7c-0.1,2.5-2.3,4.4-4.8,4.4c-2.7,0-4.9-1.9-5-4.4c0-1,0-2,0-2.9
		c0-4.1,0-4.1-4.1-3.8c-0.7,0-0.9,0.2-0.9,0.9c0.1,2-0.1,4,0.1,6c0.4,4.2,2.6,7.2,6.7,8.6c4.1,1.4,7.6,0.3,10.5-2.8
		C202.3,163.3,202.6,160.2,202.5,157.4z M198.8,144.8c0,1.6,0.1,3.3,0,4.9c-0.1,1.1,0.6,0.9,1.3,0.9c0.6,0,1.3,0.2,1.3-0.9
		c-0.1-3.3-0.1-6.6,0-9.9c0-1.1-0.6-0.9-1.3-0.9c-0.6,0-1.3-0.2-1.3,0.9C198.9,141.5,198.8,143.2,198.8,144.8z"/>
	<path class="st2" d="M161.5,140.8c-5.1,0-10.2,0-15.3,0c-0.9,0-1.8,0.1-1.8-1.2s0.9-1.2,1.8-1.2c10.3,0,20.6,0,30.9,0
		c0.9,0,1.8-0.1,1.8,1.2s-0.9,1.2-1.8,1.2C171.9,140.8,166.7,140.8,161.5,140.8z"/>
	<path class="st2" d="M238.5,138.4c5.1,0,10.2,0,15.3,0c0.9,0,1.8-0.1,1.8,1.2s-0.9,1.2-1.8,1.2c-10.3,0-20.6,0-30.9,0
		c-0.9,0-1.8,0.1-1.8-1.2s0.9-1.2,1.8-1.2C228.1,138.4,233.3,138.4,238.5,138.4z"/>
	<path class="st2" d="M154.3,130.9c4.3,0,8.7,0,13,0c0.9,0,1.8-0.1,1.8,1.2s-0.9,1.2-1.8,1.2c-8.7,0-17.3,0-26,0
		c-0.9,0-1.8,0.1-1.8-1.2s0.9-1.2,1.8-1.2C145.6,130.9,149.9,130.9,154.3,130.9z"/>
	<path class="st2" d="M245.9,130.9c4.3,0,8.7,0,13,0c0.9,0,1.7,0,1.8,1.2c0,1.3-0.8,1.3-1.8,1.3c-8.7,0-17.4,0-26.1,0
		c-0.9,0-1.7,0-1.8-1.2c0-1.3,0.8-1.3,1.8-1.3C237.1,130.9,241.5,130.9,245.9,130.9z"/>
	<path class="st2" d="M134.6,130.9c0.5,0,0.9,0,1.4,0c0.7,0.1,1,0.5,1,1.1c0,0.7-0.3,1.2-1,1.3c-0.9,0.1-1.8,0-2.6,0
		s-1.3-0.3-1.3-1.2s0.4-1.3,1.3-1.3C133.7,130.9,134.1,130.9,134.6,130.9L134.6,130.9z"/>
	<path class="st2" d="M265.6,133.4c-0.9-0.2-2.4,0.5-2.5-1.2c0-1.8,1.5-1.2,2.4-1.2c1,0,2.4-0.6,2.5,1.2
		C268,133.9,266.5,133.2,265.6,133.4z"/>
	<path class="st2" d="M216.9,38.4c0.3,0.1,0.9,0.2,1.5,0.5c15.2,5.9,25.8,16.5,31.7,31.7c0.2,0.6,0.4,1.2,0.5,1.8
		c0.1,0.7-0.3,1.1-0.9,1.3c-0.6,0.2-1.1-0.1-1.4-0.7c-0.3-0.6-0.5-1.2-0.7-1.9c-5.7-14.4-15.8-24.5-30.4-30
		c-0.4-0.1-0.8-0.3-1.1-0.5c-0.6-0.3-0.8-0.8-0.7-1.4C215.5,38.7,215.9,38.4,216.9,38.4z"/>
	<path class="st2" d="M198.5,122.9c1,0,2.1,0,3.1,0c1.2,0,2.1-0.6,2.1-1.8c0-1.3-0.9-1.9-2.1-1.9c-1.2,0-2.4,0-3.6,0
		c-2.2-0.1-4-1.8-4.1-4c-0.1-2.4,1.4-4.5,3.8-4.6c1.1-0.1,1.3-0.5,1.2-1.4c0-0.4,0-0.8,0-1.2c0.1-0.7,0.5-1.1,1.2-1.1
		s1.1,0.4,1.3,1.1c0,0.1,0,0.1,0,0.2c-0.4,2.1,0.5,2.8,2.6,2.5c0.7-0.1,1.1,0.4,1.1,1.2c0,0.8-0.4,1.2-1.2,1.3c-1.6,0-3.3,0-4.9,0
		c-1.3,0-2.3,0.4-2.4,1.8c-0.1,1.2,0.9,1.9,2.5,1.9c1,0,2.1,0,3.1,0c2.3,0,4.2,1.7,4.3,4c0.1,2.4-1.4,4.4-3.8,4.6
		c-1,0.1-1.2,0.4-1.1,1.3c0.1,0.5,0,0.9,0,1.4c-0.1,0.7-0.5,1.1-1.3,1.1c-0.7,0-1.1-0.4-1.2-1.1c-0.2-0.8,0.6-2-0.4-2.5
		c-0.7-0.3-1.7-0.1-2.6-0.1c-0.9,0-1.9,0-1.9-1.2s0.9-1.3,1.8-1.3C196.6,122.9,197.6,122.9,198.5,122.9z"/>
</g>
<g>
	<path class="st3" d="M157.7,134.7c-2.1-5.1-3.3-10.7-3.3-16.6c0-23.9,19.4-43.3,43.3-43.3c12.4,0,23.6,5.3,31.5,13.6"/>
	<path class="st3" d="M241.1,116.3c0,0.6,0.1,1.2,0.1,1.8c0,23.9-19.4,43.3-43.3,43.3c-15.3,0-28.8-7.9-36.5-19.9"/>
	<path class="st3" d="M235.4,98.9l14.6-5.8c0,0,7.4-3.2,11,0.5c0,0,3.2,4.1-2.5,6.8l-43.6,17.4c0,0-7.8,3-11.7-0.5l-11-9.8
		c0,0,2.9-2,7.4-0.6l5.4,1.8c0,0,3.4,1.1,7.4-0.7l6.9-2.9l-14.4-12.1c0,0,5.4-2.2,11.5,0.3C216.5,93.2,231.6,99.4,235.4,98.9z"/>
	<path class="st3" d="M143.3,122.2c0,0-28.5,30.7,48.8,1"/>
</g>
</svg>
