<svg width="36" height="40" viewBox="0 0 36 40" fill="none" xmlns="http://www.w3.org/2000/svg">
<path fill-rule="evenodd" clip-rule="evenodd" d="M0 29.7399V14.5139H36V29.8619C36 36.1399 32.0483 39.9999 25.7256 39.9999H10.2547C3.99122 39.9999 0 36.0599 0 29.7399ZM9.91877 24.8199C9.00988 24.8619 8.25906 24.1399 8.21954 23.2219C8.21954 22.3019 8.93084 21.5419 9.83974 21.4999C10.7289 21.4999 11.4599 22.2019 11.4797 23.0999C11.5192 24.0219 10.8079 24.7819 9.91877 24.8199ZM18.0395 24.8199C17.1306 24.8619 16.3798 24.1399 16.3403 23.2219C16.3403 22.3019 17.0516 21.5419 17.9605 21.4999C18.8496 21.4999 19.5807 22.2019 19.6004 23.0999C19.64 24.0219 18.9287 24.7819 18.0395 24.8199ZM26.101 32.1799C25.1921 32.1599 24.461 31.3999 24.461 30.4799C24.4413 29.5599 25.1723 28.8019 26.0812 28.7819H26.101C27.0296 28.7819 27.7805 29.5419 27.7805 30.4799C27.7805 31.4199 27.0296 32.1799 26.101 32.1799ZM16.3403 30.4799C16.3798 31.3999 17.1306 32.1219 18.0395 32.0799C18.9287 32.0419 19.64 31.2819 19.6004 30.3619C19.5807 29.4619 18.8496 28.7599 17.9605 28.7599C17.0516 28.8019 16.3403 29.5599 16.3403 30.4799ZM8.19978 30.4799C8.2393 31.3999 8.99012 32.1219 9.89901 32.0799C10.7881 32.0419 11.4995 31.2819 11.4599 30.3619C11.4402 29.4619 10.7091 28.7599 9.81998 28.7599C8.91109 28.8019 8.19978 29.5599 8.19978 30.4799ZM24.4808 23.2019C24.4808 22.2819 25.1921 21.5419 26.101 21.5219C26.9901 21.5219 27.7014 22.2399 27.7409 23.1219C27.7607 24.0419 27.0494 24.8019 26.1603 24.8199C25.2514 24.8399 24.5005 24.1399 24.4808 23.2219V23.2019Z" fill="#e0aa3a"/>
<path opacity="0.4" d="M0.00683594 14.5137C0.032522 13.3397 0.131315 11.0097 0.317044 10.2597C1.26545 6.04174 4.48609 3.36174 9.08982 2.97974H26.912C31.4762 3.38174 34.7364 6.07974 35.6848 10.2597C35.8685 10.9897 35.9673 13.3377 35.993 14.5137H0.00683594Z" fill="#e0aa3a"/>
<path d="M10.6093 9.18C11.4787 9.18 12.1307 8.522 12.1307 7.64V1.542C12.1307 0.66 11.4787 0 10.6093 0C9.73992 0 9.08789 0.66 9.08789 1.542V7.64C9.08789 8.522 9.73992 9.18 10.6093 9.18Z" fill="#e0aa3a"/>
<path d="M25.3896 9.18C26.2392 9.18 26.911 8.522 26.911 7.64V1.542C26.911 0.66 26.2392 0 25.3896 0C24.5202 0 23.8682 0.66 23.8682 1.542V7.64C23.8682 8.522 24.5202 9.18 25.3896 9.18Z" fill="#e0aa3a"/>
</svg>
